<svg width="1614" height="736" viewBox="0 0 1614 736" fill="none" xmlns="http://www.w3.org/2000/svg">
<rect width="1614" height="736" rx="36" fill="url(#paint0_linear_0_476)"/>
<mask id="mask0_0_476" style="mask-type:alpha" maskUnits="userSpaceOnUse" x="0" y="0" width="1614" height="736">
<rect width="1614" height="736" rx="36" fill="url(#paint1_linear_0_476)"/>
</mask>
<g mask="url(#mask0_0_476)">
<g opacity="0.6">
<path opacity="0.5" d="M141 492L341.109 450.185L405 256L204.891 297.815L141 492Z" fill="url(#paint2_linear_0_476)"/>
<path opacity="0.6" d="M68.7717 146L5 339.805L141.104 492L205 298.195L68.7717 146Z" fill="url(#paint3_linear_0_476)"/>
<path opacity="0.7" d="M69 145.651L205.086 298L405 256.225L268.914 104L69 145.651Z" fill="url(#paint4_linear_0_476)"/>
</g>
<circle cx="1479" cy="82" r="303" fill="white" fill-opacity="0.2"/>
</g>
<defs>
<linearGradient id="paint0_linear_0_476" x1="1.02431e-05" y1="62" x2="1614.07" y2="408.694" gradientUnits="userSpaceOnUse">
<stop stop-color="#4D35E9"/>
<stop offset="1" stop-color="#291D74"/>
</linearGradient>
<linearGradient id="paint1_linear_0_476" x1="1.02431e-05" y1="62" x2="1614.07" y2="408.694" gradientUnits="userSpaceOnUse">
<stop stop-color="#503DC9"/>
<stop offset="1" stop-color="#181A66"/>
</linearGradient>
<linearGradient id="paint2_linear_0_476" x1="-301.253" y1="-821.761" x2="373.444" y2="582.567" gradientUnits="userSpaceOnUse">
<stop stop-color="white"/>
<stop offset="1" stop-color="white" stop-opacity="0"/>
</linearGradient>
<linearGradient id="paint3_linear_0_476" x1="-453.225" y1="-370.369" x2="640.059" y2="984.783" gradientUnits="userSpaceOnUse">
<stop stop-color="white"/>
<stop offset="1" stop-color="white" stop-opacity="0"/>
</linearGradient>
<linearGradient id="paint4_linear_0_476" x1="-498.271" y1="-393.954" x2="334.784" y2="649.038" gradientUnits="userSpaceOnUse">
<stop stop-color="white"/>
<stop offset="1" stop-color="white" stop-opacity="0"/>
</linearGradient>
</defs>
</svg>
