<svg width="41" height="41" viewBox="0 0 41 41" fill="none" xmlns="http://www.w3.org/2000/svg">
<g clip-path="url(#clip0_0_535)">
<rect width="41" height="41" fill="white"/>
<path d="M-5 22.5V46H18.5H42V22.5V-1H18.5H-5V22.5ZM31.0876 5.37529C31.0372 5.42119 26.0205 9.88482 19.9389 15.2917C13.8597 20.6985 8.88657 25.1277 8.89116 25.1323C8.89575 25.1369 10.3278 24.7743 12.0696 24.3245C13.8138 23.877 15.2458 23.5098 15.2573 23.5098C15.2665 23.5098 15.2366 23.5488 15.1907 23.5947C15.1448 23.6429 13.8092 25.247 12.2234 27.1587C10.6376 29.0704 9.3272 30.6378 9.31113 30.6424C9.22622 30.663 8.43906 29.6143 8.05352 28.9717C7.30996 27.7301 6.77754 26.3784 6.5228 25.0933C6.38052 24.3795 6.36216 24.2464 6.29102 23.4753C6.26118 23.1495 6.26118 22.0112 6.29102 21.6853C6.35068 21.0267 6.38281 20.7903 6.45395 20.4231C6.58247 19.7599 6.56182 19.8471 6.69263 19.3789C6.72476 19.2596 6.76606 19.1081 6.78442 19.0461C6.87852 18.6973 7.1103 18.0731 7.30767 17.6348C7.50732 17.185 7.60601 16.9899 7.85845 16.5332C8.00762 16.2601 8.39775 15.6474 8.54233 15.4546C8.57446 15.411 8.68232 15.2664 8.781 15.1333C9.08623 14.7248 9.42588 14.337 9.87109 13.8918C10.7248 13.0357 11.5372 12.4184 12.5906 11.824C13.8872 11.0919 15.535 10.5458 16.9854 10.369C17.7105 10.2818 18.5551 10.2566 19.5212 10.2956C19.9183 10.3117 21.0015 10.4081 20.9992 10.4287C20.9992 10.4356 19.3468 11.9434 17.3296 13.7793C15.3101 15.6152 13.5889 17.1827 13.504 17.263L13.3479 17.4076L13.5544 17.2676C13.6692 17.1918 17.6761 14.4655 22.4587 11.2113C27.2437 7.95479 31.1611 5.29038 31.168 5.29038C31.1749 5.29038 31.1381 5.3271 31.0876 5.37529ZM27.9918 14.6284C28.0905 14.7478 28.1777 14.851 28.1846 14.8579C28.2213 14.8923 28.6826 15.5211 28.8157 15.7185C29.2448 16.3565 29.6923 17.1896 29.9792 17.8872C30.1789 18.3691 30.3946 19.0025 30.491 19.3789C30.5116 19.4615 30.5415 19.5786 30.5598 19.6428C30.5782 19.7048 30.6241 19.9136 30.6608 20.1018C30.8627 21.1139 30.9041 21.5522 30.9041 22.6033C30.9041 23.7691 30.8214 24.4461 30.5415 25.6096C30.4129 26.1466 30.0962 27.0554 29.869 27.5442C29.8254 27.6383 29.791 27.7187 29.791 27.7232C29.791 27.7623 29.3573 28.5884 29.1897 28.8684C28.5127 29.9975 27.7531 30.9247 26.8191 31.7623C26.3509 32.1846 25.7726 32.6252 25.27 32.9465C25.2012 32.9901 25.0841 33.0635 25.013 33.1094C24.9396 33.1576 24.8753 33.1943 24.8684 33.1943C24.8638 33.1943 24.7904 33.2356 24.7055 33.2861C24.4874 33.4215 23.7944 33.7681 23.4456 33.9195C23.1403 34.0503 22.5689 34.2592 22.1604 34.3831C20.7812 34.81 19.0531 34.9958 17.6624 34.8696C16.8109 34.7893 16.1592 34.6814 16.1592 34.6195C16.1592 34.5874 16.5126 34.2684 20.0491 31.1174C22.0434 29.3412 23.7118 27.8518 23.7554 27.8059L23.8357 27.7255L23.7324 27.7944C23.675 27.8334 19.9687 30.3188 15.4937 33.3206C11.0186 36.3223 7.04375 38.989 6.6582 39.246C6.27266 39.5031 6.00644 39.6706 6.06611 39.6155C6.12578 39.5604 11.131 35.1221 17.1873 29.752C23.2436 24.3818 28.1983 19.9848 28.196 19.9802C28.1915 19.9756 26.7824 20.3313 25.0635 20.7673C23.3423 21.2034 21.9286 21.5568 21.9194 21.5545C21.9125 21.5499 23.2161 19.9526 24.8179 18.002C26.4175 16.0513 27.7348 14.4425 27.7416 14.4265C27.7646 14.3737 27.8082 14.4081 27.9918 14.6284Z" fill="#0F0F0F"/>
</g>
<defs>
<clipPath id="clip0_0_535">
<rect width="41" height="41" fill="white"/>
</clipPath>
</defs>
</svg>
