<svg width="114" height="36" viewBox="0 0 114 36" fill="none" xmlns="http://www.w3.org/2000/svg">
<path d="M49.928 20.168C49.928 21.944 48.296 23.16 45.864 23.16C43.368 23.16 41.768 21.88 41.832 19.992H43.112C43.112 21.272 44.2 22.024 46.056 22.008C47.72 21.992 48.6 21.336 48.6 20.168C48.6 18.984 47.624 18.632 45.704 18.456C43.304 18.248 41.88 17.432 41.88 15.544C41.88 13.688 43.496 12.44 45.896 12.44C48.184 12.44 49.688 13.592 49.816 15.4H48.536C48.376 14.216 47.416 13.576 45.832 13.592C44.184 13.608 43.224 14.312 43.224 15.496C43.224 16.76 44.216 17.192 45.944 17.352C48.504 17.56 49.928 18.296 49.928 20.168ZM56.6376 23V13.768H52.7656V12.6H61.7896V13.768H57.9336V23H56.6376ZM64.2973 17.784C64.2973 14.408 66.1373 12.44 69.3693 12.44C72.5853 12.44 74.4093 14.392 74.4093 17.784C74.4093 21.208 72.6013 23.16 69.3693 23.16C66.1213 23.16 64.2973 21.192 64.2973 17.784ZM65.6413 17.784C65.6413 20.52 66.9213 21.992 69.3533 21.992C71.7853 21.992 73.0653 20.52 73.0653 17.784C73.0653 15.096 71.7693 13.592 69.3533 13.592C66.9213 13.592 65.6413 15.08 65.6413 17.784ZM82.5272 12.6C84.8792 12.6 86.2392 13.72 86.2392 15.688C86.2392 17.368 85.2952 18.44 83.5512 18.744L86.2552 23H84.7032L82.1592 18.824C81.7432 18.824 80.0632 18.824 79.6472 18.824V23H78.3512V12.6H82.5272ZM79.6472 17.752H82.3512C84.0472 17.752 84.9112 17 84.9112 15.688C84.9112 14.392 84.0472 13.768 82.3512 13.768H79.6472V17.752ZM94.663 20.296L91.591 14.744V23H90.295V12.6H91.783L95.367 19.032L98.935 12.6H100.423V23H99.143V14.744L96.055 20.296H94.663ZM103.915 12.6H105.435L108.491 17.816L111.547 12.6H113.067L109.131 19.112V23H107.835V19.08L103.915 12.6Z" fill="white"/>
<g clip-path="url(#clip0_202_324)">
<rect width="36" height="36" fill="white"/>
<path d="M0 18V36H18H36V18V0H18H0V18ZM27.6416 4.8832C27.6029 4.91836 23.7604 8.33731 19.1021 12.4787C14.4457 16.6201 10.6365 20.0127 10.64 20.0162C10.6436 20.0197 11.7404 19.742 13.0746 19.3975C14.4105 19.0547 15.5074 18.7734 15.5162 18.7734C15.5232 18.7734 15.5004 18.8033 15.4652 18.8385C15.4301 18.8754 14.407 20.1041 13.1924 21.5684C11.9777 23.0326 10.974 24.2332 10.9617 24.2367C10.8967 24.2525 10.2937 23.4492 9.99844 22.957C9.42891 22.0061 9.02109 20.9707 8.82598 19.9863C8.71699 19.4396 8.70293 19.3377 8.64844 18.7471C8.62559 18.4975 8.62559 17.6256 8.64844 17.376C8.69414 16.8715 8.71875 16.6904 8.77324 16.4092C8.87168 15.9012 8.85586 15.968 8.95605 15.6094C8.98066 15.518 9.0123 15.402 9.02637 15.3545C9.09844 15.0873 9.27598 14.6092 9.42715 14.2734C9.58008 13.9289 9.65566 13.7795 9.84902 13.4297C9.96328 13.2205 10.2621 12.7512 10.3729 12.6035C10.3975 12.5701 10.4801 12.4594 10.5557 12.3574C10.7895 12.0445 11.0496 11.7475 11.3906 11.4064C12.0445 10.7508 12.6668 10.2779 13.4736 9.82266C14.4668 9.26192 15.7289 8.84356 16.8398 8.7082C17.3953 8.64141 18.0422 8.62207 18.7822 8.65195C19.0863 8.66426 19.916 8.73809 19.9143 8.75391C19.9143 8.75918 18.6486 9.91406 17.1035 11.3203C15.5566 12.7266 14.2383 13.9271 14.1732 13.9887L14.0537 14.0994L14.2119 13.9922C14.2998 13.9342 17.3689 11.8459 21.0322 9.35332C24.6973 6.85899 27.6979 4.81816 27.7031 4.81816C27.7084 4.81816 27.6803 4.84629 27.6416 4.8832ZM25.2703 11.9707C25.3459 12.0621 25.4127 12.1412 25.418 12.1465C25.4461 12.1729 25.7994 12.6545 25.9014 12.8057C26.2301 13.2943 26.5729 13.9324 26.7926 14.4668C26.9455 14.8359 27.1107 15.3211 27.1846 15.6094C27.2004 15.6727 27.2232 15.7623 27.2373 15.8115C27.2514 15.859 27.2865 16.0189 27.3146 16.1631C27.4693 16.9383 27.501 17.274 27.501 18.0791C27.501 18.9721 27.4377 19.4906 27.2232 20.3818C27.1248 20.7932 26.8822 21.4893 26.7082 21.8637C26.6748 21.9357 26.6484 21.9973 26.6484 22.0008C26.6484 22.0307 26.3162 22.6635 26.1879 22.8779C25.6693 23.7428 25.0875 24.4529 24.3721 25.0945C24.0135 25.418 23.5705 25.7555 23.1855 26.0016C23.1328 26.035 23.0432 26.0912 22.9887 26.1264C22.9324 26.1633 22.8832 26.1914 22.8779 26.1914C22.8744 26.1914 22.8182 26.223 22.7531 26.2617C22.5861 26.3654 22.0553 26.6309 21.7881 26.7469C21.5543 26.8471 21.1166 27.007 20.8037 27.102C19.7473 27.4289 18.4236 27.5713 17.3584 27.4746C16.7062 27.4131 16.207 27.3305 16.207 27.283C16.207 27.2584 16.4777 27.0141 19.1865 24.6006C20.7141 23.24 21.992 22.0992 22.0254 22.0641L22.0869 22.0025L22.0078 22.0553C21.9639 22.0852 19.125 23.9889 15.6973 26.2881C12.2695 28.5873 9.225 30.6299 8.92969 30.8268C8.63437 31.0236 8.43047 31.152 8.47617 31.1098C8.52187 31.0676 12.3557 27.668 16.9945 23.5547C21.6334 19.4414 25.4285 16.0734 25.4268 16.0699C25.4232 16.0664 24.3439 16.3389 23.0273 16.6729C21.709 17.0068 20.6262 17.2775 20.6191 17.2758C20.6139 17.2723 21.6123 16.0488 22.8393 14.5547C24.0645 13.0605 25.0734 11.8283 25.0787 11.816C25.0963 11.7756 25.1297 11.802 25.2703 11.9707Z" fill="#131313"/>
</g>
<defs>
<clipPath id="clip0_202_324">
<rect width="36" height="36" fill="white"/>
</clipPath>
</defs>
</svg>
