<svg width="24" height="24" viewBox="0 0 24 24" fill="none" xmlns="http://www.w3.org/2000/svg">
<path fill-rule="evenodd" clip-rule="evenodd" d="M20.61 5.20693C20.7142 5.287 20.8016 5.38682 20.8672 5.50068C20.9328 5.61454 20.9753 5.74021 20.9923 5.87051C21.0093 6.0008 21.0004 6.13318 20.9662 6.26005C20.932 6.38693 20.8732 6.50582 20.793 6.60993L10.793 19.6099C10.7063 19.7227 10.5964 19.8156 10.4709 19.8826C10.3453 19.9495 10.207 19.9889 10.065 19.9981C9.923 20.0072 9.78069 19.986 9.64757 19.9358C9.51445 19.8856 9.39357 19.8076 9.29301 19.7069L4.29301 14.7069C4.11085 14.5183 4.01006 14.2657 4.01234 14.0035C4.01461 13.7413 4.11978 13.4905 4.30519 13.3051C4.4906 13.1197 4.74141 13.0145 5.00361 13.0123C5.26581 13.01 5.51841 13.1108 5.70701 13.2929L9.90201 17.4879L19.207 5.38993C19.2871 5.28574 19.3869 5.19835 19.5008 5.13276C19.6146 5.06717 19.7403 5.02466 19.8706 5.00767C20.0009 4.99067 20.1333 4.99952 20.2601 5.03371C20.387 5.06791 20.5059 5.12677 20.61 5.20693Z" fill="white"/>
</svg>
