<svg width="24" height="24" viewBox="0 0 24 24" fill="none" xmlns="http://www.w3.org/2000/svg">
<path fill-rule="evenodd" clip-rule="evenodd" d="M15.879 3.70697C16.4416 3.14456 17.2045 2.82861 18 2.82861C18.7955 2.82861 19.5584 3.14456 20.121 3.70697L20.293 3.87897C20.8554 4.44156 21.1714 5.20448 21.1714 5.99997C21.1714 6.79546 20.8554 7.55839 20.293 8.12097L18.556 9.85997L8.70703 19.708C8.57902 19.836 8.41865 19.9269 8.24303 19.971L4.24303 20.971C4.07544 21.0129 3.89984 21.0108 3.73334 20.9647C3.56684 20.9186 3.41511 20.8302 3.29295 20.708C3.17079 20.5859 3.08237 20.4342 3.03629 20.2677C2.99021 20.1012 2.98805 19.9256 3.03003 19.758L4.03003 15.758C4.07407 15.5823 4.16497 15.422 4.29303 15.294L14.199 5.38797L15.879 3.70797V3.70697ZM18.707 5.12097C18.5195 4.9335 18.2652 4.82819 18 4.82819C17.7349 4.82819 17.4806 4.9335 17.293 5.12097L16.307 6.10697L17.862 7.72397L18.879 6.70697C19.0665 6.51944 19.1718 6.26514 19.1718 5.99997C19.1718 5.73481 19.0665 5.4805 18.879 5.29297L18.707 5.12097ZM16.447 9.13797L14.892 7.52197L5.90303 16.512L5.37403 18.626L7.48903 18.097L16.448 9.13797H16.447Z" fill="white"/>
</svg>
