<svg width="24" height="24" viewBox="0 0 24 24" fill="none" xmlns="http://www.w3.org/2000/svg">
<path fill-rule="evenodd" clip-rule="evenodd" d="M2.97198 8.12919L6.8621 6.75687C6.05892 7.83809 5.36912 8.99908 4.80359 10.2215L2.97198 8.12919ZM0.269844 8.35501L3.87306 12.472L3.35161 13.7766C3.27225 13.9747 3.25269 14.1916 3.29535 14.4006C3.338 14.6096 3.441 14.8015 3.59161 14.9526L3.93524 15.2951C2.07636 17.3896 1.05092 19.5812 0.0560296 22.5636C-0.00807074 22.7558 -0.0173732 22.9621 0.0291649 23.1593C0.075703 23.3565 0.176243 23.5368 0.319515 23.6801C0.462787 23.8234 0.64313 23.9239 0.840331 23.9705C1.03753 24.017 1.2438 24.0077 1.43601 23.9436C4.4185 22.9487 6.6101 21.9233 8.70462 20.0644L9.04716 20.407C9.19812 20.5578 9.38998 20.661 9.599 20.7038C9.80802 20.7467 10.025 20.7273 10.2231 20.6481L11.5278 20.1266L15.6449 23.7298C15.779 23.8472 15.9398 23.93 16.1134 23.9709C16.2869 24.0118 16.4678 24.0095 16.6402 23.9643C16.8127 23.9191 16.9714 23.8323 17.1025 23.7116C17.2337 23.5908 17.3332 23.4398 17.3925 23.2716L20.6499 14.0428C22.8134 11.4827 24.0003 8.23901 24 4.88712V1.09087C24 0.801556 23.8851 0.524088 23.6805 0.31951C23.4759 0.114931 23.1984 1.39269e-07 22.9091 1.39269e-07H19.1128C15.7614 -0.000469331 12.518 1.186 9.95805 3.34898L0.729109 6.60743C0.561158 6.66673 0.410282 6.76626 0.289663 6.89731C0.169043 7.02837 0.0823483 7.18696 0.0371517 7.35924C-0.00804493 7.53153 -0.0103687 7.71226 0.0303837 7.88564C0.071136 8.05903 0.153725 8.2198 0.270935 8.35391L0.269844 8.35501ZM2.92944 21.0702C3.61452 19.4165 4.3825 18.1009 5.48103 16.8409L7.15882 18.5187C5.89884 19.6172 4.58323 20.3852 2.92944 21.0702ZM10.0813 18.3561L9.49878 17.7736L6.22611 14.501L5.64357 13.9185L6.41811 11.9822C7.1289 10.2058 8.12692 8.55846 9.37224 7.10595L10.0006 6.3718C11.1273 5.05742 12.5251 4.0024 14.0979 3.27914C15.6708 2.55589 17.3816 2.18152 19.1128 2.18175H21.8182V4.88712C21.8184 6.6183 21.4441 8.32903 20.7208 9.9019C19.9975 11.4748 18.9425 12.8725 17.6281 13.9992L16.8939 14.6275C15.4414 15.8728 13.794 16.8708 12.0177 17.5816L10.0813 18.3561ZM15.8707 21.0277L13.7784 19.1972C15.0008 18.6317 16.1618 17.9419 17.243 17.1387L15.8707 21.0277ZM15.2729 7.63612C15.2729 7.3468 15.3878 7.06933 15.5924 6.86476C15.797 6.66018 16.0744 6.54525 16.3638 6.54525C16.6531 6.54525 16.9306 6.66018 17.1351 6.86476C17.3397 7.06933 17.4547 7.3468 17.4547 7.63612C17.4547 7.92544 17.3397 8.2029 17.1351 8.40748C16.9306 8.61206 16.6531 8.72699 16.3638 8.72699C16.0744 8.72699 15.797 8.61206 15.5924 8.40748C15.3878 8.2029 15.2729 7.92544 15.2729 7.63612ZM16.3638 4.3635C15.4958 4.3635 14.6634 4.70829 14.0496 5.32203C13.4359 5.93576 13.0911 6.76817 13.0911 7.63612C13.0911 8.50407 13.4359 9.33648 14.0496 9.95021C14.6634 10.5639 15.4958 10.9087 16.3638 10.9087C17.2317 10.9087 18.0641 10.5639 18.6779 9.95021C19.2916 9.33648 19.6364 8.50407 19.6364 7.63612C19.6364 6.76817 19.2916 5.93576 18.6779 5.32203C18.0641 4.70829 17.2317 4.3635 16.3638 4.3635Z" fill="white"/>
</svg>
